<?xml version="1.0" encoding="UTF-8" standalone="no"?>
<svg
   xmlns:dc="http://purl.org/dc/elements/1.1/"
   xmlns:cc="http://creativecommons.org/ns#"
   xmlns:rdf="http://www.w3.org/1999/02/22-rdf-syntax-ns#"
   xmlns:svg="http://www.w3.org/2000/svg"
   xmlns="http://www.w3.org/2000/svg"
   viewBox="0 0 144 144"
   height="144"
   width="144"
   xml:space="preserve"
   id="svg2"
   version="1.1"><metadata
     id="metadata8"><rdf:RDF><cc:Work
         rdf:about=""><dc:format>image/svg+xml</dc:format><dc:type
           rdf:resource="http://purl.org/dc/dcmitype/StillImage" /></cc:Work></rdf:RDF></metadata><defs
     id="defs6"><clipPath
       id="clipPath18"
       clipPathUnits="userSpaceOnUse"><path
         id="path16"
         d="M 0,108 H 108 V 0 H 0 Z" /></clipPath><clipPath
       id="clipPath90"
       clipPathUnits="userSpaceOnUse"><path
         id="path88"
         d="M 25.5546,40.6203 H 72.0274 V 38.4319 H 25.5546 Z" /></clipPath></defs><g
     transform="matrix(1.3333333,0,0,-1.3333333,0,144)"
     id="g10"><g
       id="g12"><g
         clip-path="url(#clipPath18)"
         id="g14"><g
           transform="translate(65.8628,65.7275)"
           id="g20"><path
             id="path22"
             style="fill:#5aacd8;fill-opacity:1;fill-rule:evenodd;stroke:none"
             d="m 0,0 c 0.086,2.466 7.039,-3.393 14.858,0.642 7.82,4.034 9.856,1.261 10.574,-1.048 C 26.148,-2.715 23.696,-7.707 15.273,-8.923 6.85,-10.139 -0.086,-2.465 0,0" /></g><g
           transform="translate(75.2524,60.8217)"
           id="g24"><path
             id="path26"
             style="fill:#ffffff;fill-opacity:1;fill-rule:evenodd;stroke:none"
             d="m 0,0 c -0.433,0.952 2.252,-0.63 7.885,1.39 2.01,0.721 2.864,1.335 3.43,0.55 C 11.558,1.603 11.904,0.581 9.076,-0.38 6.249,-1.343 0.479,-1.053 0,0 m 11.697,2.552 c -0.196,0.546 0.133,1.244 0.737,1.56 0.602,0.315 1.251,0.128 1.447,-0.418 C 14.078,3.148 13.749,2.45 13.146,2.134 12.542,1.819 11.894,2.006 11.697,2.552" /></g><g
           transform="translate(98.1225,60.8955)"
           id="g28"><path
             id="path30"
             style="fill:#88682a;fill-opacity:1;fill-rule:nonzero;stroke:none"
             d="m 0,0 c 2.591,-1.075 0.584,-6.686 -2.011,-5.61 l -88.93,29.67 c -2.141,0.949 -1.543,5.086 1.127,4.963 z" /></g><g
           transform="translate(40.0146,95.2641)"
           id="g32"><path
             id="path34"
             style="fill:#987533;fill-opacity:1;fill-rule:evenodd;stroke:none"
             d="m 0,0 c -1.063,9.625 -19.68,15.009 -26.594,9.247 -4.876,-11.204 -7.809,-23 -8.052,-34.916 1.839,-7.873 14.179,-12.113 21.308,-7.512 C -6.178,-23.933 -1.878,-12.359 0,0" /></g><g
           transform="translate(40.0146,95.2641)"
           id="g36"><path
             id="path38"
             style="fill:#89692d;fill-opacity:1;fill-rule:evenodd;stroke:none"
             d="m 0,0 c -0.098,0.888 -0.347,1.74 -0.721,2.55 l -15.731,-3.316 -8.692,-33.604 c 4.004,-1.18 8.474,-0.961 11.806,1.189 C -6.178,-23.933 -1.878,-12.359 0,0" /></g><g
           transform="translate(6.4453,81.2378)"
           id="g40"><path
             id="path42"
             style="fill:#88682a;fill-opacity:1;fill-rule:evenodd;stroke:none"
             d="m 0,0 c -0.177,-1.08 -0.332,-2.164 -0.467,-3.249 0.223,-0.406 0.465,-0.808 0.725,-1.203 2.058,-3.122 5.27,-5.833 8.899,-7.757 3.627,-1.922 7.689,-3.07 11.452,-3.067 0.847,10e-4 1.68,0.06 2.49,0.181 0.422,0.654 0.831,1.318 1.227,1.991 -1.172,-0.32 -2.426,-0.472 -3.723,-0.472 -3.477,-0.003 -7.255,1.07 -10.648,2.868 C 6.564,-8.91 3.577,-6.396 1.679,-3.519 0.937,-2.393 0.363,-1.213 0,0" /></g><g
           transform="translate(10.0337,95.6865)"
           id="g44"><path
             id="path46"
             style="fill:#88682a;fill-opacity:1;fill-rule:evenodd;stroke:none"
             d="M 0,0 C -0.269,-0.807 -0.526,-1.617 -0.773,-2.428 -0.4,-3.054 0.026,-3.662 0.5,-4.25 c 2.382,-2.965 5.957,-5.436 9.92,-7.093 3.959,-1.654 8.328,-2.502 12.305,-2.225 1.569,0.11 3.079,0.394 4.483,0.872 0.21,0.69 0.414,1.383 0.607,2.081 -1.562,-0.722 -3.334,-1.127 -5.21,-1.258 -3.673,-0.256 -7.739,0.54 -11.442,2.087 C 7.461,-8.239 4.136,-5.949 1.939,-3.214 1.122,-2.198 0.463,-1.121 0,0" /></g><g
           transform="translate(5.3686,69.5952)"
           id="g48"><path
             id="path50"
             style="fill:#ab8e4b;fill-opacity:1;fill-rule:evenodd;stroke:none"
             d="m 0,0 c -0.014,-4.122 12.728,-15.083 21.309,-7.512 0.723,0.935 1.417,1.893 2.083,2.874 -0.222,-0.078 -0.365,-0.145 -0.367,-0.14 -0.861,1.684 -3.265,-2.743 -3.629,-2.02 -1.141,2.265 -5.411,-0.717 -7.581,0.028 -1.533,0.525 -2.547,4.312 -5.232,3.48 C 2.638,-4.512 4.36,0.14 3.2,0.117 0.677,0.068 1.787,1.577 0.811,3.828 -0.501,6.849 -0.28,0.926 0,0" /></g><g
           transform="translate(40.0146,95.2641)"
           id="g52"><path
             id="path54"
             style="fill:#ab8e4b;fill-opacity:1;fill-rule:evenodd;stroke:none"
             d="M 0,0 C -1.063,9.625 -19.68,15.009 -26.595,9.247 -27.247,7.956 -31.574,3.427 -28,3.554 c 0.051,-2.649 -0.211,-3.984 4.327,-3.558 1.892,0.176 1.587,-4.242 3.018,-3.503 4.027,2.077 3.241,-3.443 7.176,-1.04 2.297,1.402 0.202,-5.387 6.05,-1.476 1.048,0.7 1.084,-2.803 6.075,-1.67 C -0.313,-5.117 1.158,-2.835 0,0" /></g><g
           transform="translate(40.0146,95.2641)"
           id="g56"><path
             id="path58"
             style="fill:#9a8044;fill-opacity:1;fill-rule:evenodd;stroke:none"
             d="m 0,0 c -0.098,0.888 -0.347,1.74 -0.721,2.55 l -15.731,-3.316 -0.814,-3.146 c 0.891,-0.888 1.63,-1.953 3.787,-0.635 2.297,1.402 0.202,-5.387 6.05,-1.476 1.048,0.7 1.084,-2.803 6.075,-1.67 C -0.313,-5.117 1.158,-2.835 0,0" /></g><g
           transform="translate(40.0146,95.2641)"
           id="g60"><path
             id="path62"
             style="fill:#d9d9a6;fill-opacity:1;fill-rule:evenodd;stroke:none"
             d="M 0,0 C 1.827,9.333 -22.579,15.701 -26.594,9.247 -28.847,0.137 -1.664,-6.729 0,0" /></g><g
           transform="translate(28.8169,103.5937)"
           id="g64"><path
             id="path66"
             style="fill:#ccbb79;fill-opacity:1;fill-rule:nonzero;stroke:none"
             d="m 0,0 c -5.056,1.859 -8.599,1.868 -10.44,0.994 -0.822,-0.39 -1.28,-0.955 -1.35,-1.594 -0.071,-0.659 0.255,-1.423 1,-2.187 1.912,-1.961 6.447,-3.826 13.959,-4.031 0.491,-0.014 0.773,0.085 0.878,0.262 0.097,0.162 0.069,0.422 -0.063,0.746 -0.161,0.39 -0.466,0.841 -0.892,1.315 -1.728,1.923 -5.339,4.114 -9.253,4.038 -0.857,-0.016 -1.361,-0.166 -1.566,-0.388 -0.073,-0.08 -0.091,-0.181 -0.059,-0.292 0.049,-0.168 0.191,-0.362 0.417,-0.566 0.856,-0.775 2.743,-1.55 5.274,-1.714 l -0.042,-0.68 c -2.697,0.174 -4.74,1.031 -5.689,1.889 -0.32,0.29 -0.53,0.592 -0.614,0.882 -0.102,0.347 -0.036,0.672 0.214,0.943 0.325,0.353 0.995,0.588 2.052,0.608 4.133,0.08 7.946,-2.233 9.772,-4.266 0.477,-0.531 0.826,-1.051 1.015,-1.512 0.216,-0.525 0.234,-0.993 0.02,-1.352 -0.234,-0.39 -0.716,-0.614 -1.48,-0.593 -7.715,0.211 -12.417,2.171 -14.429,4.235 -0.895,0.918 -1.283,1.875 -1.189,2.736 0.096,0.88 0.683,1.638 1.733,2.136 1.981,0.94 5.717,0.96 10.965,-0.969 z" /></g><g
           transform="translate(30.0488,68.6772)"
           id="g68"><path
             id="path70"
             style="fill:#5aacd8;fill-opacity:1;fill-rule:evenodd;stroke:none"
             d="m 0,0 c 0.861,-0.318 -4.401,-2.957 -7.293,-16.519 -1.486,-6.965 -5.496,-7.271 -7.769,-6.506 -2.273,0.765 -3.372,5.397 -1.813,11.136 C -14.012,-1.346 -3.936,1.457 0,0" /></g><g
           transform="translate(20.2397,61.958)"
           id="g72"><path
             id="path74"
             style="fill:#ffffff;fill-opacity:1;fill-rule:evenodd;stroke:none"
             d="m 0,0 c 1.091,-0.155 -1.836,-1.645 -3.23,-7.795 -0.498,-2.197 -0.437,-3.303 -1.456,-3.362 -0.436,-0.025 -1.541,0.246 -0.794,3.305 C -4.733,-4.793 -1.207,0.171 0,0 m -4.357,-11.843 c 0.596,-0.135 1.03,-0.823 0.969,-1.537 -0.062,-0.716 -0.595,-1.186 -1.192,-1.052 -0.597,0.135 -1.031,0.823 -0.969,1.538 0.061,0.715 0.595,1.186 1.192,1.051" /></g><g
           transform="translate(33.083,94.3286)"
           id="g76"><path
             id="path78"
             style="fill:#5aacd8;fill-opacity:1;fill-rule:evenodd;stroke:none"
             d="M 0,0 C 2.333,-0.971 3.854,-2.154 5.739,-4.116 L 3.145,-6.087 c -0.689,0.717 -5.675,0.454 -4.936,1.03 1.475,1.151 0.549,2.157 -0.785,2.712 -2.517,1.47 -3.298,-5.212 -9.69,-3.288 -4.275,1.287 -6.179,5.278 -4.872,9.026 1.307,3.749 5.813,5.681 10.064,4.316 2.55,-0.818 3.79,-2.849 3.977,-5.098 C -2.906,0.308 -2.677,1.113 0,0" /></g><g
           transform="translate(24.7036,101.2363)"
           id="g80"><path
             id="path82"
             style="fill:#ffffff;fill-opacity:1;fill-rule:evenodd;stroke:none"
             d="m 0,0 c 1.598,0 2.894,-1.296 2.894,-2.894 0,-2.912 -5.77,-3.06 -5.77,0.42 C -2.876,-0.876 -1.599,0 0,0" /></g><g
           id="g84"><g
             id="g86" /><g
             id="g98"><g
               style="opacity:0.24000501"
               id="g96"
               clip-path="url(#clipPath90)"><g
                 id="g94"
                 transform="translate(48.791,40.6206)"><path
                   id="path92"
                   style="fill:#000000;fill-opacity:1;fill-rule:evenodd;stroke:none"
                   d="m 0,0 c 12.833,0 23.237,-0.49 23.237,-1.095 0,-0.603 -10.404,-1.093 -23.237,-1.093 -12.833,0 -23.236,0.49 -23.236,1.093 C -23.236,-0.49 -12.833,0 0,0" /></g></g></g></g><g
           transform="translate(36.4409,39.3989)"
           id="g100"><path
             id="path102"
             style="fill:#5aacd8;fill-opacity:1;fill-rule:evenodd;stroke:none"
             d="M 0,0 C 5.992,0 7.132,3.908 11.093,3.939 15.055,3.971 16.775,0 22.556,0 c 9.343,0 15.426,20.064 15.426,31.046 0,14.07 -11.93,23.539 -26.647,23.539 -14.716,0 -26.647,-9.469 -26.647,-23.539 C -15.312,14.396 -8.202,0 0,0" /></g><g
           transform="translate(48.9228,93.3144)"
           id="g104"><path
             id="path106"
             style="fill:#64bbe4;fill-opacity:1;fill-rule:evenodd;stroke:none"
             d="M 0,0 C 7.057,0 13.395,-3.007 17.747,-7.781 4.755,-6.165 -10.942,-8.114 -22.61,-13.412 -19.693,-4.694 -10.727,0 0,0 m 21.991,-14.413 c 1.141,-2.716 1.276,-5.73 1.771,-8.809 2.914,-18.122 -49.076,-29.172 -47.376,3.37 0.026,0.505 0.018,1 0.05,1.486 13.381,6.192 31.974,7.6 45.555,3.953" /></g><g
           transform="translate(48.168,86.1504)"
           id="g108"><path
             id="path110"
             style="fill:#f4fafb;fill-opacity:1;fill-rule:evenodd;stroke:none"
             d="M 0,0 C -4.643,-0.952 -6.086,3.527 -0.215,4.944 7.139,6.719 17.58,1.925 20.711,-4.675 21.544,-6.433 20.241,-7.092 18.818,-5.331 14.875,-0.453 7.789,1.596 0,0 m 21.045,-7.294 c 0.52,0.088 1.093,-0.338 1.281,-0.951 0.186,-0.614 -0.083,-1.183 -0.602,-1.271 -0.519,-0.088 -1.093,0.337 -1.28,0.951 -0.188,0.614 0.082,1.183 0.601,1.271" /></g><g
           transform="translate(48.4814,67.8535)"
           id="g112"><path
             id="path114"
             style="fill:#143e6a;fill-opacity:1;fill-rule:evenodd;stroke:none"
             d="M 0,0 C 4.005,0.444 5.323,2.016 7.234,0.655 9.145,-0.705 6.416,-6.196 0.722,-6.827 -4.973,-7.459 -8.732,-2.742 -7.271,-0.954 -5.81,0.834 -4.005,-0.444 0,0" /></g><g
           transform="translate(52.8457,63.1948)"
           id="g116"><path
             id="path118"
             style="fill:#5aacd8;fill-opacity:1;fill-rule:evenodd;stroke:none"
             d="m 0,0 c -0.959,-0.75 -2.216,-1.331 -3.727,-1.499 -1.563,-0.173 -2.949,0.142 -4.059,0.694 -0.047,1.224 2.054,2.119 3.77,1.496 C -2.397,1.685 -0.174,1.238 0,0" /></g><g
           transform="translate(48.5307,67.3916)"
           id="g120"><path
             id="path122"
             style="fill:#ffffff;fill-opacity:1;fill-rule:evenodd;stroke:none"
             d="M 0,0 C 2.623,0.291 4.003,1.017 5.19,1.147 5.193,1.127 5.196,1.106 5.199,1.086 5.3,0.171 4.695,-0.647 3.849,-0.741 3.575,-0.771 3.309,-0.722 3.071,-0.611 2.851,-1.186 2.313,-1.624 1.643,-1.698 1.05,-1.764 0.497,-1.53 0.141,-1.121 c -0.258,-0.477 -0.747,-0.827 -1.34,-0.893 -0.682,-0.075 -1.314,0.247 -1.65,0.777 -0.216,-0.18 -0.481,-0.3 -0.775,-0.333 -0.846,-0.094 -1.615,0.572 -1.716,1.487 -0.003,0.027 -0.006,0.053 -0.008,0.08 C -4.159,0.104 -2.622,-0.291 0,0" /></g><g
           transform="translate(61.6772,76.1142)"
           id="g124"><path
             id="path126"
             style="fill:#143e6a;fill-opacity:1;fill-rule:evenodd;stroke:none"
             d="m 0,0 c 2.32,0.257 4.41,-1.415 4.667,-3.735 0.258,-2.32 -1.414,-4.41 -3.734,-4.666 -2.321,-0.258 -4.41,1.414 -4.667,3.734 C -3.991,-2.347 -2.319,-0.257 0,0" /></g><g
           transform="translate(63.7309,74.979)"
           id="g128"><path
             id="path130"
             style="fill:#f4fafb;fill-opacity:1;fill-rule:evenodd;stroke:none"
             d="M 0,0 C 0.647,0.072 1.23,-0.395 1.302,-1.042 1.373,-1.689 0.907,-2.271 0.26,-2.344 -0.387,-2.415 -0.97,-1.949 -1.042,-1.302 -1.113,-0.655 -0.647,-0.072 0,0" /></g><g
           transform="translate(33.7617,73.0175)"
           id="g132"><path
             id="path134"
             style="fill:#143e6a;fill-opacity:1;fill-rule:evenodd;stroke:none"
             d="m 0,0 c 2.32,0.257 4.409,-1.415 4.667,-3.735 0.257,-2.32 -1.415,-4.409 -3.735,-4.666 -2.32,-0.258 -4.41,1.414 -4.667,3.734 C -3.992,-2.347 -2.32,-0.257 0,0" /></g><g
           transform="translate(35.8149,71.8828)"
           id="g136"><path
             id="path138"
             style="fill:#f4fafb;fill-opacity:1;fill-rule:evenodd;stroke:none"
             d="M 0,0 C 0.647,0.072 1.23,-0.395 1.302,-1.042 1.374,-1.689 0.907,-2.272 0.26,-2.344 -0.387,-2.416 -0.97,-1.949 -1.042,-1.302 -1.114,-0.655 -0.647,-0.072 0,0" /></g><g
           transform="translate(21.4892,74.5859)"
           id="g140"><path
             id="path142"
             style="fill:#143e6a;fill-opacity:1;fill-rule:evenodd;stroke:none"
             d="m 0,0 c 13.86,7.873 35.379,9.784 50.223,5.349 1.636,-0.489 1.203,1.424 0.342,3.776 -0.523,1.428 -1.135,2.464 -2.641,2.73 C 32.869,14.524 13.06,11.987 0.297,4.623 -0.853,3.959 -1.093,2.743 -0.954,1.794 -0.8,0.75 -0.83,-0.471 0,0" /></g><g
           transform="translate(50.4687,96.1728)"
           id="g144"><path
             id="path146"
             style="fill:#c6c8cf;fill-opacity:1;fill-rule:evenodd;stroke:none"
             d="m 0,0 c 5.143,0 9.312,-4.169 9.312,-9.312 0,-5.143 -4.169,-9.312 -9.312,-9.312 -5.143,0 -9.312,4.169 -9.312,9.312 C -9.312,-4.169 -5.143,0 0,0" /></g><g
           transform="translate(59.6567,85.3432)"
           id="g148"><path
             id="path150"
             style="fill:#d3d6de;fill-opacity:1;fill-rule:evenodd;stroke:none"
             d="m 0,0 c -0.725,-4.42 -4.562,-7.794 -9.188,-7.794 -4.626,0 -8.463,3.374 -9.188,7.794 0.725,4.421 4.562,7.795 9.188,7.795 C -4.562,7.795 -0.725,4.421 0,0" /></g><g
           transform="translate(50.4687,89.9843)"
           id="g152"><path
             id="path154"
             style="fill:#a6aab1;fill-opacity:1;fill-rule:evenodd;stroke:none"
             d="m 0,0 c 1.832,0 3.316,-1.571 3.316,-3.509 0,-1.937 -1.484,-3.509 -3.316,-3.509 -1.831,0 -3.316,1.572 -3.316,3.509 C -3.316,-1.571 -1.831,0 0,0" /></g><g
           transform="translate(50.4687,89.9843)"
           id="g156"><path
             id="path158"
             style="fill:#143e6a;fill-opacity:1;fill-rule:evenodd;stroke:none"
             d="m 0,0 c 1.725,0 3.124,-1.398 3.124,-3.124 0,-1.725 -1.399,-3.123 -3.124,-3.123 -1.725,0 -3.124,1.398 -3.124,3.123 C -3.124,-1.398 -1.725,0 0,0" /></g><g
           transform="translate(47.6435,83.6821)"
           id="g160"><path
             id="path162"
             style="fill:#ffffff;fill-opacity:1;fill-rule:evenodd;stroke:none"
             d="m 0,0 -3.477,-1.847 c 1.743,-2.215 3.442,-3.223 6.369,-2.977 l -0.738,3.6 C 1.329,-1.113 0.492,-0.722 0,0" /></g><g
           transform="translate(59.1411,36.1421)"
           id="g164"><path
             id="path166"
             style="fill:#64bbe4;fill-opacity:1;fill-rule:evenodd;stroke:none"
             d="m 0,0 c 3.802,-0.219 2.366,0.333 5.161,4.416 0.705,1.028 3.514,1.264 4.256,-1.86 1.016,-4.279 7.534,-3.468 9.676,2.078 2.961,7.665 14.329,2.385 2.298,-5.826 -3.713,-2.535 4.319,-5.283 2.286,-7.579 -2.942,-3.321 1.979,-5.673 1.979,-8.811 0,-6.57 -0.346,-2.148 -4.892,-4.096 -2.898,-1.24 2.983,-4.134 2.804,-7.499 -0.261,-4.915 -5.072,-1.162 -5.769,1.233 -1.986,6.831 -7.374,-2.581 -11.075,3.392 -1.166,1.882 -3.653,-0.013 -4.696,-1.622 -4.859,-7.492 -12.402,-1.3 -4.654,3.352 2.893,1.735 -0.558,5.767 -1.67,7.381 -4.654,6.75 7.645,5.678 2.614,10.907 C -3.848,-2.283 -3.292,0.189 0,0 m -0.363,-31.562 c 0.988,0 1.79,-0.802 1.79,-1.791 0,-0.988 -0.802,-1.789 -1.79,-1.789 -0.989,0 -1.79,0.801 -1.79,1.789 0,0.989 0.801,1.791 1.79,1.791 M 13.655,6.272 c 0.626,0 1.134,-0.507 1.134,-1.132 0,-0.627 -0.508,-1.134 -1.134,-1.134 -0.626,0 -1.134,0.507 -1.134,1.134 0,0.625 0.508,1.132 1.134,1.132" /></g><g
           transform="translate(17.6733,20.9614)"
           id="g168"><path
             id="path170"
             style="fill:#143e6a;fill-opacity:1;fill-rule:nonzero;stroke:none"
             d="m 0,0 c 0.475,-0.087 0.989,-0.13 1.541,-0.13 0.242,0 0.497,0.004 0.764,0.013 0.268,0.009 0.51,0.034 0.726,0.078 0.216,0.043 0.397,0.116 0.544,0.22 0.146,0.103 0.22,0.258 0.22,0.465 0,0.26 -0.134,0.455 -0.401,0.583 C 3.126,1.359 2.797,1.484 2.409,1.605 2.021,1.726 1.593,1.868 1.127,2.033 0.661,2.196 0.233,2.438 -0.155,2.758 -0.543,3.077 -0.872,3.505 -1.14,4.04 c -0.267,0.535 -0.401,1.234 -0.401,2.099 0,0.569 0.112,1.13 0.337,1.682 0.225,0.553 0.587,1.054 1.088,1.502 0.5,0.449 1.148,0.812 1.942,1.089 0.795,0.276 1.753,0.414 2.875,0.414 0.432,0 0.863,-0.017 1.295,-0.052 C 6.428,10.739 6.838,10.692 7.227,10.632 7.615,10.571 7.974,10.511 8.301,10.45 9.06,10.311 9.562,8.979 9.276,8.099 8.899,6.937 8.995,5.794 7.861,5.982 7.447,6.052 6.998,6.086 6.514,6.086 6.411,6.086 6.247,6.082 6.022,6.073 5.798,6.064 5.573,6.038 5.349,5.995 5.124,5.952 4.925,5.879 4.753,5.775 4.581,5.672 4.494,5.533 4.494,5.36 4.494,5.085 4.632,4.877 4.908,4.739 5.185,4.602 5.525,4.472 5.932,4.351 6.337,4.23 6.782,4.083 7.266,3.91 7.749,3.738 8.194,3.492 8.599,3.172 9.005,2.853 9.346,2.426 9.622,1.891 9.898,1.354 10.037,0.655 10.037,-0.208 10.037,-1.141 9.834,-1.917 9.428,-2.539 9.022,-3.16 8.487,-3.656 7.822,-4.028 7.158,-4.399 6.394,-4.663 5.53,-4.818 4.667,-4.974 3.769,-5.052 2.836,-5.052 c -0.725,0 -1.437,0.044 -2.136,0.13 -1.084,0.134 -1.786,0.501 -2.062,1.132 -0.163,0.374 -0.078,0.921 -0.105,1.349 C -1.55,-1.132 -1.145,0.208 0,0" /></g><g
           transform="translate(67.9995,17.6782)"
           id="g172"><path
             id="path174"
             style="fill:#ffffff;fill-opacity:1;fill-rule:nonzero;stroke:none"
             d="m 0,0 c -0.613,-0.507 -1.295,-0.793 -2.045,-0.856 -0.75,-0.065 -1.52,0.009 -2.311,0.221 -0.661,0.177 -1.254,0.464 -1.784,0.863 -0.529,0.397 -0.957,0.878 -1.283,1.442 -0.325,0.564 -0.535,1.195 -0.632,1.893 -0.095,0.696 -0.04,1.432 0.168,2.207 0.181,0.675 0.48,1.262 0.896,1.76 0.416,0.498 0.907,0.896 1.472,1.196 0.566,0.298 1.19,0.484 1.872,0.557 0.682,0.073 1.386,0.013 2.111,-0.181 C -0.778,8.898 -0.169,8.616 0.29,8.255 1.347,7.424 1.296,6.717 1.61,7.889 1.813,8.646 1.7,9.216 1.272,9.595 c -0.428,0.38 -1.038,0.676 -1.829,0.887 -0.725,0.195 -1.422,0.261 -2.087,0.321 -1.746,0.156 -1.067,0.981 -0.772,2.303 0.407,1.827 0.799,1.582 3.349,1.18 C 0.814,14.147 1.699,13.959 2.589,13.72 3.397,13.504 4.163,13.197 4.887,12.8 5.61,12.402 6.207,11.911 6.678,11.326 7.148,10.74 7.466,10.064 7.631,9.296 7.796,8.527 7.746,7.648 7.456,6.666 6.677,4.029 6.16,2.342 5.373,-0.293 4.935,-1.758 4.389,-2.554 2.971,-2.3 2.007,-2.127 1.743,-2.08 0.678,-1.889 -0.955,-1.594 0.552,-0.148 0,0 M -1.865,5.401 C -2.447,5.469 -2.961,5.399 -3.405,5.191 -3.85,4.983 -4.098,4.684 -4.15,4.291 -4.186,3.895 -4.027,3.547 -3.674,3.249 -3.321,2.951 -2.81,2.766 -2.141,2.693 c 0.67,-0.074 1.203,0.004 1.6,0.234 0.397,0.229 0.611,0.534 0.643,0.914 0.034,0.326 -0.105,0.65 -0.415,0.972 -0.312,0.322 -0.829,0.518 -1.552,0.588" /></g><g
           transform="translate(78.4028,20.9614)"
           id="g176"><path
             id="path178"
             style="fill:#143e6a;fill-opacity:1;fill-rule:nonzero;stroke:none"
             d="m 0,0 c 0.475,-0.087 0.988,-0.13 1.541,-0.13 0.242,0 0.496,0.004 0.764,0.013 0.267,0.009 0.509,0.034 0.725,0.078 0.216,0.043 0.398,0.116 0.544,0.22 0.147,0.103 0.22,0.258 0.22,0.465 0,0.26 -0.134,0.455 -0.4,0.583 C 3.125,1.359 2.797,1.484 2.409,1.605 2.021,1.726 1.593,1.868 1.127,2.033 0.66,2.196 0.232,2.438 -0.155,2.758 -0.544,3.077 -0.872,3.505 -1.14,4.04 c -0.267,0.535 -0.401,1.234 -0.401,2.099 0,0.569 0.112,1.13 0.337,1.682 0.224,0.553 0.587,1.054 1.088,1.502 0.5,0.449 1.147,0.812 1.942,1.089 0.794,0.276 1.752,0.414 2.874,0.414 0.433,0 0.864,-0.017 1.296,-0.052 C 6.428,10.739 6.838,10.692 7.227,10.632 7.615,10.571 7.973,10.511 8.301,10.45 9.06,10.311 9.562,8.979 9.276,8.099 8.899,6.937 8.994,5.794 7.86,5.982 7.446,6.052 6.997,6.086 6.514,6.086 6.41,6.086 6.246,6.082 6.021,6.073 5.797,6.064 5.573,6.038 5.349,5.995 5.124,5.952 4.926,5.879 4.753,5.775 4.58,5.672 4.494,5.533 4.494,5.36 4.494,5.085 4.632,4.877 4.908,4.739 5.185,4.602 5.525,4.472 5.931,4.351 6.337,4.23 6.781,4.083 7.266,3.91 7.748,3.738 8.193,3.492 8.599,3.172 9.005,2.853 9.346,2.426 9.622,1.891 9.898,1.354 10.036,0.655 10.036,-0.208 10.036,-1.141 9.834,-1.917 9.428,-2.539 9.021,-3.16 8.486,-3.656 7.821,-4.028 7.157,-4.399 6.394,-4.663 5.529,-4.818 4.666,-4.974 3.769,-5.052 2.836,-5.052 c -0.725,0 -1.438,0.044 -2.137,0.13 -1.084,0.134 -1.786,0.501 -2.061,1.132 -0.164,0.374 -0.079,0.921 -0.106,1.349 C -1.55,-1.132 -1.146,0.208 0,0" /></g><g
           transform="translate(53.9697,17.5551)"
           id="g180"><path
             id="path182"
             style="fill:#143e6a;fill-opacity:1;fill-rule:nonzero;stroke:none"
             d="m 0,0 h -0.053 c -0.356,-0.977 -0.911,-1.67 -1.666,-2.078 -0.755,-0.408 -1.638,-0.613 -2.651,-0.613 -1.333,0 -2.412,0.395 -3.238,1.185 -0.826,0.791 -1.239,1.942 -1.239,3.451 v 10.201 c 0,1.22 0.609,1.041 1.861,1.141 1.324,0.108 1.239,0.101 2.376,0.192 0.986,0.08 1.708,0.282 1.692,-0.72 -0.049,-3 -0.088,-6.001 -0.146,-9.001 -0.009,-0.427 0.075,-0.734 0.279,-0.92 0.205,-0.187 0.52,-0.279 0.946,-0.279 0.356,0 0.644,0.088 0.866,0.266 0.223,0.178 0.325,0.48 0.307,0.905 -0.048,2.806 -0.096,5.612 -0.143,8.416 -0.021,1.229 0.967,1.069 2.234,1.167 1.263,0.099 0.943,0.074 1.886,0.148 1.227,0.096 1.988,0.003 1.958,-1.191 C 5.153,7.635 5.042,3.322 4.927,-1.271 4.906,-2.146 4.561,-2.253 3.78,-2.287 2.588,-2.338 2.721,-2.333 1.53,-2.385 0.615,-2.424 0,-2.606 0,-1.699 V 0" /></g><g
           transform="translate(34.8486,21.3237)"
           id="g184"><path
             id="path186"
             style="fill:#143e6a;fill-opacity:1;fill-rule:nonzero;stroke:none"
             d="m 0,0 c -0.8,0.373 -1.337,0.896 -1.612,1.571 -0.276,0.675 -0.271,1.306 0.013,1.893 0.285,0.603 0.768,1.008 1.452,1.212 C 0.537,4.881 1.279,4.796 2.078,4.423 2.896,4.032 3.446,3.504 3.73,2.838 4.015,2.171 4.006,1.536 3.704,0.933 3.562,0.63 3.366,0.377 3.118,0.173 2.869,-0.031 2.58,-0.178 2.251,-0.268 1.923,-0.355 1.567,-0.383 1.186,-0.347 0.804,-0.312 0.408,-0.196 0,0 m -5.396,-3.491 c 0.648,-0.764 1.425,-1.377 2.332,-1.839 0.905,-0.462 1.9,-0.692 2.984,-0.692 0.551,0 1.142,0.08 1.772,0.239 0.631,0.16 1.194,0.48 1.692,0.96 -0.044,-1.448 -0.077,-2.525 -0.12,-3.971 -0.032,-1.066 0.396,-1.369 1.405,-1.455 1.251,-0.106 1.611,-0.139 2.862,-0.245 1.065,-0.09 1.322,0.329 1.336,1.292 C 8.955,-3.029 9.026,1.851 9.114,8.07 9.132,9.324 9.352,9.814 8.113,9.921 6.899,10.027 6.779,10.038 5.565,10.143 4.633,10.224 3.624,10.503 3.624,9.624 V 8.5 c -0.569,0.622 -1.16,1.079 -1.772,1.372 -0.613,0.293 -1.346,0.44 -2.199,0.44 -1.066,0 -2.038,-0.236 -2.918,-0.707 C -4.144,9.135 -4.89,8.518 -5.503,7.754 -7.654,5.073 -7.832,-0.623 -5.396,-3.491" /></g><g
           transform="translate(95.5014,29.8051)"
           id="g188"><path
             id="path190"
             style="fill:#143e6a;fill-opacity:1;fill-rule:nonzero;stroke:none"
             d="m 0,0 c 0.293,0.268 0.612,0.478 0.957,0.629 0.569,0.25 1.208,0.376 1.916,0.376 0.726,0 1.369,-0.13 1.93,-0.389 0.561,-0.26 1.032,-0.622 1.412,-1.088 0.38,-0.466 0.669,-1.014 0.867,-1.644 C 7.281,-2.747 7.371,-3.425 7.354,-4.149 7.303,-7.491 7.251,-10.832 7.199,-14.173 5.377,-14.329 3.556,-14.484 1.733,-14.64 v 9.454 c 0,0.293 -0.103,0.544 -0.31,0.751 -0.207,0.207 -0.484,0.311 -0.828,0.311 -0.329,0 -0.61,-0.099 -0.842,-0.298 -0.233,-0.198 -0.351,-0.471 -0.351,-0.815 v -6.091 c 0,-2.272 0.56,-3.385 -1.458,-3.212 -1.042,0.089 -1.157,0.099 -2.199,0.188 -1.227,0.105 -1.79,1.029 -1.802,2.414 -0.05,5.732 -0.096,10.902 -0.146,16.538 -0.02,2.206 1.883,2.03 4.205,2.027 C -0.214,6.625 -0.449,5.363 -0.492,3.601 -0.532,1.997 -0.525,2.287 -0.555,1.104 -0.588,-0.242 -0.682,-0.621 0,0" /></g></g></g></g></svg>